HIERARCHY
ROOT Hips
{
 OFFSET 0.000000 0.000000 0.000000
 CHANNELS 6 Xposition Yposition Zposition Yrotation Xrotation Zrotation
 JOINT Chest
 {
  OFFSET 0.000000 14.374500 -0.011500
  CHANNELS 3 Yrotation Xrotation Zrotation
  JOINT Chest2
  {
   OFFSET 0.000000 9.203400 0.023400
   CHANNELS 3 Yrotation Xrotation Zrotation
   JOINT Chest3
   {
    OFFSET 0.000000 9.162700 0.000000
    CHANNELS 3 Yrotation Xrotation Zrotation
    JOINT Chest4
    {
     OFFSET 0.000000 9.153300 0.000000
     CHANNELS 3 Yrotation Xrotation Zrotation
     JOINT Neck
     {
      OFFSET 0.000000 13.353600 0.000000
      CHANNELS 3 Yrotation Xrotation Zrotation
      JOINT Head
      {
       OFFSET 0.000000 8.573800 0.049400
       CHANNELS 3 Yrotation Xrotation Zrotation
       End Site
       {
        OFFSET 0.000000 16.219200 0.026100
       }
      }
     }
     JOINT RightCollar
     {
      OFFSET -2.497100 8.876100 0.000000
      CHANNELS 3 Yrotation Xrotation Zrotation
      JOINT RightShoulder
      {
       OFFSET -12.289200 0.000000 0.000000
       CHANNELS 3 Yrotation Xrotation Zrotation
       JOINT RightElbow
       {
        OFFSET 0.000000 -28.194900 0.000000
        CHANNELS 3 Yrotation Xrotation Zrotation
        JOINT RightWrist
        {
         OFFSET 0.000000 -23.009700 0.007900
         CHANNELS 3 Yrotation Xrotation Zrotation
         End Site
         {
          OFFSET 0.000000 -17.151500 0.000000
         }
        }
       }
      }
     }
     JOINT LeftCollar
     {
      OFFSET 2.497100 8.876100 0.000000
      CHANNELS 3 Yrotation Xrotation Zrotation
      JOINT LeftShoulder
      {
       OFFSET 12.289200 0.000000 0.000000
       CHANNELS 3 Yrotation Xrotation Zrotation
       JOINT LeftElbow
       {
        OFFSET 0.000000 -28.194900 0.000000
        CHANNELS 3 Yrotation Xrotation Zrotation
        JOINT LeftWrist
        {
         OFFSET 0.000000 -23.009700 0.007900
         CHANNELS 3 Yrotation Xrotation Zrotation
         End Site
         {
          OFFSET 0.000000 -17.151500 0.000000
         }
        }
       }
      }
     }
    }
   }
  }
 }
 JOINT RightHip
 {
  OFFSET -11.777600 0.056700 0.005700
  CHANNELS 3 Yrotation Xrotation Zrotation
  JOINT RightKnee
  {
   OFFSET 0.000000 -39.966000 -0.004200
   CHANNELS 3 Yrotation Xrotation Zrotation
   JOINT RightAnkle
   {
    OFFSET 0.000000 -41.981900 0.027400
    CHANNELS 3 Yrotation Xrotation Zrotation
    JOINT RightToe
    {
     OFFSET 0.000000 -9.910600 16.950100
     CHANNELS 3 Yrotation Xrotation Zrotation
     End Site
     {
      OFFSET 0.000000 -1.461000 6.191600
     }
    }
   }
  }
 }
 JOINT LeftHip
 {
  OFFSET 11.777600 0.056700 0.005700
  CHANNELS 3 Yrotation Xrotation Zrotation
  JOINT LeftKnee
  {
   OFFSET 0.000000 -39.966000 -0.004200
   CHANNELS 3 Yrotation Xrotation Zrotation
   JOINT LeftAnkle
   {
    OFFSET 0.000000 -41.981900 0.027400
    CHANNELS 3 Yrotation Xrotation Zrotation
    JOINT LeftToe
    {
     OFFSET 0.000000 -9.910600 16.950100
     CHANNELS 3 Yrotation Xrotation Zrotation
     End Site
     {
      OFFSET 0.000000 -1.461000 6.191600
     }
    }
   }
  }
 }
}
MOTION
Frames: 12
Frame Time: 0.008333
-6.809597 130.406922 91.791215 174.457940 -44.545689 -2.889170 3.958728 24.798349 5.264514 0.488546 4.014875 0.729814 0.775877 6.403364 1.162013 3.025960 20.520555 4.152767 7.241894 16.631983 -3.640526 8.795447 -7.864972 -5.687951 2.771059 -8.551150 0.372451 18.102192 -20.544138 -20.676978 38.402116 -43.562675 -10.920685 18.221675 -3.556036 -27.975622 -10.608469 -12.129644 0.837850 -16.345501 -16.793168 14.506303 -9.624123 -45.859964 -23.422891 -15.741070 -24.730456 43.307852 7.145040 -32.938359 0.457069 -85.806412 86.660949 -88.423809 4.385127 -26.905833 7.838983 0.000507 -0.005526 0.000296 -2.794218 -33.129677 -2.023627 146.749092 71.863302 158.162360 -3.855958 9.609484 -7.665181 -0.004109 0.001583 -0.002402
-6.808605 130.406856 91.793892 174.449494 -44.555625 -2.883520 3.949404 24.806024 5.249325 0.460126 4.013541 0.708175 0.777387 6.408741 1.157300 3.035232 20.526051 4.149633 7.136553 16.499424 -3.643618 8.675270 -8.019342 -5.663932 2.808157 -8.530265 0.369013 18.067010 -20.623084 -20.730881 38.438473 -43.565952 -10.856651 18.282082 -3.247088 -27.599855 -10.647209 -12.119106 0.779868 -16.276788 -16.789361 14.640894 -10.148295 -46.091296 -23.021538 -15.863677 -24.158998 43.114681 7.144587 -32.934059 0.450447 -85.835410 86.669280 -88.444740 4.385378 -26.892429 7.834969 -0.002706 -0.004321 -0.001582 -2.792154 -33.121974 -2.003147 146.792531 71.866602 158.200433 -3.861255 9.610482 -7.667129 -0.001690 -0.000324 -0.000988
-6.807980 130.407119 91.796211 174.435988 -44.568012 -2.873142 3.953813 24.817228 5.243857 0.437749 4.012800 0.698303 0.766715 6.411689 1.148027 3.029452 20.533462 4.135324 7.027177 16.369733 -3.647319 8.550821 -8.170320 -5.639404 2.849046 -8.514425 0.359971 18.042186 -20.700601 -20.781881 38.439254 -43.571623 -10.773161 18.401573 -2.876891 -27.192413 -10.674580 -12.110335 0.735943 -16.205881 -16.788738 14.752644 -10.695525 -46.332541 -22.584728 -15.994660 -23.590271 42.904913 7.149241 -32.926777 0.438655 -85.898819 86.677793 -88.502212 4.402198 -26.887812 7.832264 -0.002563 -0.004165 -0.001499 -2.789172 -33.113250 -1.983814 146.832395 71.868929 158.234929 -3.870411 9.621700 -7.683198 -0.000675 0.000271 -0.000394
-6.806700 130.406890 91.799214 174.420466 -44.577712 -2.864866 3.939144 24.824204 5.225348 0.430293 4.016864 0.697526 0.762696 6.414925 1.143123 3.013779 20.540967 4.116955 6.913520 16.243963 -3.651407 8.421683 -8.316789 -5.614143 2.894270 -8.503334 0.345774 18.031572 -20.774855 -20.830178 38.542005 -43.547640 -10.783610 18.480982 -2.482921 -26.765886 -10.700086 -12.098149 0.688889 -16.101922 -16.797499 14.880358 -11.245040 -46.584008 -22.165159 -16.131623 -23.028647 42.681865 7.155730 -32.920933 0.434572 -85.931459 86.682072 -88.525905 4.406056 -26.886336 7.835684 0.000154 -0.002972 0.000090 -2.790340 -33.106789 -1.960868 146.867924 71.868975 158.264877 -3.880897 9.624070 -7.690503 0.001622 -0.001594 0.000948
-6.804511 130.406758 91.802400 174.404209 -44.587933 -2.860688 3.922482 24.833349 5.214062 0.421450 4.020691 0.691591 0.757971 6.418085 1.138596 2.995872 20.548417 4.099470 6.797331 16.123288 -3.655657 8.289881 -8.457338 -5.588494 2.946319 -8.493017 0.326549 18.035195 -20.849350 -20.875624 38.680858 -43.511552 -10.834322 18.569304 -2.065529 -26.341582 -10.719896 -12.081077 0.637998 -15.987625 -16.800198 14.989671 -11.797916 -46.845365 -21.713790 -16.273189 -22.479718 42.449683 7.158778 -32.914840 0.430701 -85.986323 86.664642 -88.560724 4.442056 -26.886924 7.822812 0.009894 -0.001527 0.005785 -2.795251 -33.099650 -1.933591 146.885343 71.864556 158.272110 -3.891738 9.624540 -7.689851 -0.001280 -0.002346 -0.000748
-6.804058 130.406905 91.805217 174.386136 -44.600380 -2.849411 3.896633 24.848811 5.189704 0.418220 4.021209 0.688008 0.752657 6.421759 1.134221 2.975936 20.556682 4.081894 6.680618 16.007714 -3.659387 8.157537 -8.591897 -5.562032 3.000973 -8.482093 0.305097 18.053194 -20.926646 -20.920036 38.800055 -43.474721 -10.881062 18.696148 -1.620119 -25.921302 -10.737859 -12.060047 0.587303 -15.797924 -16.784725 15.047075 -12.421156 -47.136850 -21.207470 -16.413619 -21.956906 42.208641 7.165040 -32.905283 0.417325 -86.006450 86.673087 -88.572169 4.450754 -26.887442 7.825511 0.008929 -0.000110 0.005221 -2.795073 -33.091087 -1.917417 146.918014 71.866545 158.297556 -3.896996 9.640485 -7.709404 -0.004353 -0.000736 -0.002545
-6.804597 130.406870 91.808346 174.371492 -44.612303 -2.838152 3.826763 24.862006 5.134790 0.452130 4.025925 0.696479 0.770734 6.424240 1.136305 2.928486 20.567801 4.058758 6.565319 15.895090 -3.661583 8.026585 -8.722818 -5.534162 3.059008 -8.475533 0.289173 18.084490 -20.998554 -20.971509 38.917878 -43.435058 -10.939401 18.837157 -1.153354 -25.496191 -10.758056 -12.035670 0.538463 -15.651026 -16.769323 15.080585 -12.991805 -47.405695 -20.664343 -16.545280 -21.468227 41.965228 7.169533 -32.896913 0.401778 -86.039956 86.688812 -88.603892 4.455093 -26.887903 7.825404 0.005349 -0.000118 0.003127 -2.789385 -33.081210 -1.913843 146.924023 71.869390 158.308601 -3.905467 9.650180 -7.727272 -0.002200 -0.002900 -0.001286
-6.805394 130.407491 91.811120 174.359162 -44.628664 -2.828862 3.816348 24.877791 5.122518 0.450230 4.027434 0.695022 0.768241 6.426836 1.133728 2.916287 20.572528 4.049203 6.418000 15.785877 -3.661427 7.899391 -8.852285 -5.505104 3.090186 -8.474524 0.284026 18.121770 -21.056901 -21.033367 39.034855 -43.391914 -11.011472 18.991685 -0.674113 -25.067249 -10.816277 -12.004190 0.489038 -15.492562 -16.745984 15.089740 -13.530614 -47.671541 -20.111952 -16.668215 -21.014560 41.717196 7.172473 -32.886134 0.380020 -86.174550 86.696766 -88.723479 4.472968 -26.888708 7.811186 0.005977 -0.001856 0.003495 -2.785277 -33.066488 -1.908640 146.926353 71.868520 158.314459 -3.923036 9.656968 -7.744023 -0.002298 -0.000820 -0.001344
-6.805357 130.407175 91.815395 174.351970 -44.640402 -2.828462 3.803848 24.888425 5.115564 0.448229 4.029064 0.693614 0.692149 6.429415 1.110283 2.981338 20.578310 4.053112 6.273526 15.673561 -3.657693 7.777063 -8.980548 -5.474167 3.117263 -8.459592 0.258476 18.160293 -21.136188 -21.075694 39.153934 -43.346071 -11.097099 19.160904 -0.186598 -24.640468 -10.875529 -11.967036 0.439576 -15.326550 -16.718993 15.071859 -14.033905 -47.929332 -19.549977 -16.786682 -20.596753 41.462836 7.170976 -32.877421 0.359176 -86.160857 86.701950 -88.686104 4.493484 -26.885387 7.814222 0.012641 -0.001161 0.007391 -2.795380 -33.059667 -1.893480 146.955890 71.870574 158.342411 -3.944167 9.672890 -7.758972 -0.005124 0.003135 -0.002996
-6.806222 130.406302 91.820489 174.349177 -44.650423 -2.828891 3.726977 24.887787 5.060355 0.483960 4.041289 0.706245 0.692442 6.432375 1.107696 2.947655 20.587689 4.036662 6.161047 15.559955 -3.651472 7.659588 -9.106687 -5.439137 3.175671 -8.443431 0.232378 18.198189 -21.217562 -21.112014 39.274195 -43.300499 -11.185243 19.347384 0.305998 -24.227856 -10.899631 -11.918796 0.386095 -15.150823 -16.692466 15.026097 -14.506595 -48.179508 -18.979862 -16.899550 -20.211855 41.209282 7.170215 -32.870903 0.336883 -86.164408 86.716454 -88.669513 4.498728 -26.881014 7.810610 0.013120 -0.000415 0.007671 -2.806830 -33.054353 -1.884291 146.994371 71.874601 158.378283 -3.946727 9.683029 -7.769768 -0.004312 0.004618 -0.002522
-6.807388 130.406553 91.824795 174.344460 -44.668534 -2.826857 3.698423 24.899240 5.036937 0.423284 4.031853 0.682414 0.773370 6.450724 1.133019 2.803920 20.591900 3.983134 6.124079 15.453513 -3.637315 7.544376 -9.229609 -5.397133 3.303019 -8.414443 0.210443 18.233228 -21.303115 -21.138413 39.393846 -43.259953 -11.270488 19.555760 0.799554 -23.831373 -10.846672 -11.849460 0.329980 -14.964651 -16.665546 14.956143 -14.940357 -48.426835 -18.407531 -17.003738 -19.856848 40.949665 7.179081 -32.855668 0.300891 -86.160869 86.748466 -88.645692 4.500388 -26.876595 7.818214 0.002336 -0.000877 0.001366 -2.814010 -33.038057 -1.883055 146.998299 71.872514 158.384522 -3.951794 9.687451 -7.783704 -0.002648 0.006443 -0.001549
-6.806634 130.409767 91.826776 174.343007 -44.704836 -2.833536 3.694366 24.932355 5.038992 0.387511 4.021655 0.667126 0.762702 6.455180 1.128716 2.751420 20.597424 3.951890 6.048383 15.351922 -3.613423 7.426901 -9.349042 -5.345586 3.380006 -8.373914 0.196536 18.265695 -21.379143 -21.150305 39.506258 -43.235242 -11.367044 19.790383 1.290850 -23.443913 -10.835631 -11.760789 0.273893 -14.765445 -16.639917 14.863876 -15.327113 -48.673106 -17.838349 -17.096614 -19.529665 40.674824 7.182754 -32.821016 0.286470 -86.128619 86.772507 -88.596721 4.504959 -26.870339 7.823836 -0.002500 -0.004160 -0.001462 -2.826361 -33.005269 -1.876202 147.007294 71.871078 158.394802 -3.950575 9.698616 -7.795942 -0.002784 0.000049 -0.001628
